<svg width="46" height="47" viewBox="0 0 46 47" fill="none" xmlns="http://www.w3.org/2000/svg">
<path d="M17.4817 32.0004L23.3317 28.4504L29.1817 32.0004L27.6317 25.3504L32.8317 20.8504L25.9817 20.3004L23.3317 14.0004L20.6817 20.3004L13.8317 20.8504L19.0317 25.3504L17.4817 32.0004ZM23.3317 46.1004L16.6317 39.5004H7.33169V30.2004L0.731689 23.5004L7.33169 16.8004V7.50039H16.6317L23.3317 0.900391L30.0317 7.50039H39.3317V16.8004L45.9317 23.5004L39.3317 30.2004V39.5004H30.0317L23.3317 46.1004ZM23.3317 40.5004L28.3317 35.5004H35.3317V28.5004L40.3317 23.5004L35.3317 18.5004V11.5004H28.3317L23.3317 6.50039L18.3317 11.5004H11.3317V18.5004L6.33169 23.5004L11.3317 28.5004V35.5004H18.3317L23.3317 40.5004Z" fill="#38BDF8"/>
</svg>
