<svg width="43" height="36" viewBox="0 0 43 36" fill="none" xmlns="http://www.w3.org/2000/svg">
<path d="M35.4984 25.5004C35.8984 25.1004 36.3738 24.9004 36.9244 24.9004C37.4751 24.9004 37.9498 25.1004 38.3484 25.5004L41.4984 28.7004C41.8984 29.1004 42.0984 29.5671 42.0984 30.1004C42.0984 30.6337 41.8984 31.1004 41.4984 31.5004C41.0984 31.9004 40.6318 32.1004 40.0984 32.1004C39.5651 32.1004 39.0984 31.9004 38.6984 31.5004L35.4984 28.3504C35.0984 27.9504 34.8984 27.4757 34.8984 26.9264C34.8984 26.3771 35.0984 25.9017 35.4984 25.5004ZM37.4984 1.50039C37.8984 1.90039 38.0984 2.37572 38.0984 2.92639C38.0984 3.47706 37.8984 3.95172 37.4984 4.35039L34.3484 7.50039C33.9484 7.90039 33.4738 8.10039 32.9244 8.10039C32.3751 8.10039 31.8998 7.90039 31.4984 7.50039C31.0971 7.10039 30.8971 6.62572 30.8984 6.07639C30.8998 5.52706 31.0998 5.05172 31.4984 4.65039L34.6984 1.50039C35.0984 1.10039 35.5651 0.900391 36.0984 0.900391C36.6318 0.900391 37.0984 1.10039 37.4984 1.50039ZM5.49844 1.50039C5.89844 1.10039 6.37378 0.900391 6.92444 0.900391C7.47511 0.900391 7.94978 1.10039 8.34844 1.50039L11.4984 4.70039C11.8984 5.10039 12.0984 5.56706 12.0984 6.10039C12.0984 6.63372 11.8984 7.10039 11.4984 7.50039C11.0984 7.90039 10.6238 8.10039 10.0744 8.10039C9.52511 8.10039 9.04978 7.90039 8.64844 7.50039L5.49844 4.35039C5.09844 3.95039 4.89844 3.47572 4.89844 2.92639C4.89844 2.37706 5.09844 1.90172 5.49844 1.50039ZM7.49844 25.5004C7.89844 25.9004 8.09844 26.3757 8.09844 26.9264C8.09844 27.4771 7.89844 27.9517 7.49844 28.3504L4.34844 31.5004C3.94844 31.9004 3.47378 32.1004 2.92444 32.1004C2.37511 32.1004 1.89978 31.9004 1.49844 31.5004C1.09711 31.1004 0.897111 30.6257 0.898444 30.0764C0.899777 29.5271 1.09978 29.0517 1.49844 28.6504L4.69844 25.5004C5.09844 25.1004 5.56511 24.9004 6.09844 24.9004C6.63178 24.9004 7.09844 25.1004 7.49844 25.5004ZM15.1984 29.1504L21.4984 25.3504L27.7984 29.2004L26.1484 22.0004L31.6984 17.2004L24.3984 16.5504L21.4984 9.75039L18.5984 16.5004L11.2984 17.1504L16.8484 22.0004L15.1984 29.1504ZM21.4984 30.0504L13.1984 35.0504C12.8318 35.2837 12.4484 35.3837 12.0484 35.3504C11.6484 35.3171 11.2984 35.1837 10.9984 34.9504C10.6984 34.7171 10.4651 34.4257 10.2984 34.0764C10.1318 33.7271 10.0984 33.3351 10.1984 32.9004L12.3984 23.4504L5.04844 17.1004C4.71511 16.8004 4.50711 16.4584 4.42444 16.0744C4.34178 15.6904 4.36644 15.3157 4.49844 14.9504C4.63044 14.5851 4.83044 14.2851 5.09844 14.0504C5.36644 13.8157 5.73311 13.6657 6.19844 13.6004L15.8984 12.7504L19.6484 3.85039C19.8151 3.45039 20.0738 3.15039 20.4244 2.95039C20.7751 2.75039 21.1331 2.65039 21.4984 2.65039C21.8638 2.65039 22.2218 2.75039 22.5724 2.95039C22.9231 3.15039 23.1818 3.45039 23.3484 3.85039L27.0984 12.7504L36.7984 13.6004C37.2651 13.6671 37.6318 13.8171 37.8984 14.0504C38.1651 14.2837 38.3651 14.5837 38.4984 14.9504C38.6318 15.3171 38.6571 15.6924 38.5744 16.0764C38.4918 16.4604 38.2831 16.8017 37.9484 17.1004L30.5984 23.4504L32.7984 32.9004C32.8984 33.3337 32.8651 33.7257 32.6984 34.0764C32.5318 34.4271 32.2984 34.7184 31.9984 34.9504C31.6984 35.1824 31.3484 35.3157 30.9484 35.3504C30.5484 35.3851 30.1651 35.2851 29.7984 35.0504L21.4984 30.0504Z" fill="#38BDF8"/>
</svg>
